<svg width="17" height="18" viewBox="0 0 17 18" fill="none" xmlns="http://www.w3.org/2000/svg">
          <path d="M6.09998 4.62501V11.5M11.1 6.50001V13.375M11.5191 16.2908L15.5816 14.2592C15.8991 14.1008 16.1 13.7758 16.1 13.4208V3.01668C16.1 2.32001 15.3666 1.86668 14.7433 2.17834L11.5191 3.79001C11.3891 3.85538 11.2455 3.88943 11.1 3.88943C10.9544 3.88943 10.8109 3.85538 10.6808 3.79001L6.51914 1.71001C6.38899 1.64495 6.24548 1.61108 6.09998 1.61108C5.95447 1.61108 5.81096 1.64495 5.68081 1.71001L1.61831 3.74084C1.4626 3.81868 1.33163 3.93833 1.24008 4.0864C1.14853 4.23446 1.10002 4.40509 1.09998 4.57918V14.9833C1.09998 15.68 1.83331 16.1333 2.45664 15.8217L5.68081 14.21C5.81087 14.1446 5.95441 14.1106 6.09998 14.1106C6.24554 14.1106 6.38908 14.1446 6.51914 14.21L10.6808 16.2908C10.945 16.4225 11.2558 16.4225 11.5191 16.2908Z" stroke="white" stroke-width="1.5" stroke-linecap="round" stroke-linejoin="round"/>
          </svg>